<svg xmlns="http://www.w3.org/2000/svg" viewBox="0 14.5 54.75 36.5" data-asc="1.02" width="54.75" height="36.5"><defs/><g fill="#ffffff"><g transform="translate(0, 0)"><path d="M0 38.25L0.70 34Q1.20 30.80 3.63 28.90Q6.05 27 9.55 27Q11.70 27 13 27.70Q14.30 28.40 15.07 29.45Q15.85 30.50 16.38 31.55Q16.90 32.60 17.50 33.30Q18.10 34 19.10 34Q19.90 34 20.38 33.52Q20.85 33.05 20.95 32.25L21.55 28.50L27.55 28.50L26.90 32.75Q26.40 35.95 24 37.85Q21.60 39.75 18.05 39.75Q15.90 39.75 14.60 39.05Q13.30 38.35 12.53 37.30Q11.75 36.25 11.22 35.20Q10.70 34.15 10.10 33.45Q9.50 32.75 8.50 32.75Q7.70 32.75 7.23 33.20Q6.75 33.65 6.60 34.50L6.00 38.25L0 38.25ZM27.25 51L42 23.70L39.85 14.50L47.70 14.50L54.75 51L47.10 51L44.80 36.15Q44.60 35 44.52 33.42Q44.45 31.85 44.50 30.85Q44.20 31.85 43.75 33.40Q43.30 34.95 42.75 36.15L35.55 51L27.25 51Z"/></g></g></svg>